<svg width="89" height="96" viewBox="0 0 89 96" fill="none" xmlns="http://www.w3.org/2000/svg">
<g filter="url(#filter0_f_4017_13528)">
<path d="M37.856 41.8459H30.8737V28.0446C30.8737 22.8325 23.8481 22.9299 23.8481 28.0446V69.2711C23.8481 73.5485 30.8737 73.3939 30.8737 69.2711V56.5145C30.8737 52.9703 37.856 52.8757 37.856 56.5145V69.2711C37.856 82.155 17 82.2581 17 69.2711V28.0446C17 21.7607 20.176 17.2627 27.4851 17.2627C34.7943 17.2627 37.856 22.3453 37.856 28.0446V41.8459Z" stroke="#0150FF" stroke-width="13"/>
<path d="M50.5447 54.4823L44.7242 50.2833L63.6155 31.0734C67.34 27.3587 62.6863 22.2557 58.6356 26.1762L39.8229 45.3062C36.2733 48.4962 30.9917 47.2236 30.7894 41.5446L35.9476 39.3542L53.69 21.3126C59.188 15.9972 64.9329 16.0294 69.0847 19.8008C73.2366 23.5722 73.3737 31.4666 68.6735 36.0478L50.5447 54.4823Z" stroke="#0150FF" stroke-width="13"/>
<path d="M68.6503 76.2383C64.2071 80.5317 56.6632 79.1981 53.8229 76.3663L47.871 70.2201L41.9191 64.0739C37.7116 59.4511 41.9336 52.9282 44.7328 50.2782L50.5829 54.4448C48.7232 56.1103 47.1416 58.9654 48.7624 60.7484L58.9705 70.9812C62.5979 74.7261 67.6019 69.6561 64.1599 66.2044L56.6246 59.1066C53.5013 55.9169 58.3083 51.091 61.515 54.3658L69.0902 61.6136C73.0801 65.8469 73.0934 71.945 68.6503 76.2383Z" stroke="#0150FF" stroke-width="13"/>
</g>
<path d="M37.856 41.8459H30.8737V28.0446C30.8737 22.8325 23.8481 22.9299 23.8481 28.0446V69.2711C23.8481 73.5485 30.8737 73.3939 30.8737 69.2711V56.5145C30.8737 52.9703 37.856 52.8757 37.856 56.5145V69.2711C37.856 82.155 17 82.2581 17 69.2711V28.0446C17 21.7607 20.176 17.2627 27.4851 17.2627C34.7943 17.2627 37.856 22.3453 37.856 28.0446V41.8459Z" fill="white"/>
<path d="M50.5447 54.4823L44.7242 50.2833L63.6155 31.0734C67.34 27.3587 62.6863 22.2557 58.6356 26.1762L39.8229 45.3062C36.2733 48.4962 31.0669 47.2726 30.8646 41.5936L35.9476 39.3542L53.69 21.3126C59.188 15.9972 64.9329 16.0294 69.0847 19.8008C73.2366 23.5722 73.3737 31.4666 68.6735 36.0478L50.5447 54.4823Z" fill="white"/>
<path d="M68.6503 76.2383C64.2071 80.5317 56.6632 79.1981 53.8229 76.3663L47.871 70.2201L41.9191 64.0739C37.7116 59.4511 41.9336 52.9282 44.7328 50.2782L50.5829 54.4448C48.7232 56.1102 47.1416 58.9654 48.7624 60.7484L58.9705 70.9812C62.5979 74.7261 67.6019 69.6561 64.1599 66.2044L56.6246 59.1066C53.5013 55.9169 58.3083 51.091 61.515 54.3658L69.0902 61.6136C73.0801 65.8469 73.0934 71.945 68.6503 76.2383Z" fill="white"/>
<defs>
<filter id="filter0_f_4017_13528" x="0.7" y="0.825976" width="87.7994" height="94.4662" filterUnits="userSpaceOnUse" color-interpolation-filters="sRGB">
<feFlood flood-opacity="0" result="BackgroundImageFix"/>
<feBlend mode="normal" in="SourceGraphic" in2="BackgroundImageFix" result="shape"/>
<feGaussianBlur stdDeviation="4.9" result="effect1_foregroundBlur_4017_13528"/>
</filter>
</defs>
</svg>
