<svg width="201" height="34" viewBox="0 0 201 34" fill="none" xmlns="http://www.w3.org/2000/svg">
<path d="M32.4696 20.5421H26.5342C26.6049 25.8558 30.6359 27.605 33.0307 28.1142C35.6341 28.6677 37.7939 28.3346 39.6816 27.7764C41.9371 27.1095 42.7026 25.691 42.7895 24.9935C42.9222 22.6072 40.972 22.1737 39.6816 22.6072C38.2582 23.2495 37.1632 23.3261 36.262 23.3261C33.1426 23.4385 32.4266 21.5345 32.4696 20.5421Z" fill="black"/>
<path d="M35.0367 14.0089V9.14801C31.424 9.14801 29.1415 10.8508 28.467 11.7033C26.8717 13.4505 26.4912 15.5764 26.4912 16.7907L26.5338 20.5477H32.4621C32.4475 20.1199 32.3323 18.7355 32.4621 16.6394C32.5896 14.579 33.8159 14.0562 35.0367 14.0089Z" fill="black"/>
<path d="M37.5281 16.6419H32.3242V20.5623H43.1865C43.6807 17.8668 43.0599 15.0694 42.6877 14.0077C41.0965 9.46828 37.4058 9.14612 35.0115 9.14612V14.0077C37.3232 14.0077 37.5649 15.7742 37.5281 16.6419Z" fill="black"/>
<path d="M69.9078 20.5421H63.9724C64.0431 25.8558 68.0741 27.605 70.469 28.1142C73.0723 28.6677 75.2321 28.3346 77.1198 27.7764C79.3753 27.1095 80.1408 25.691 80.2277 24.9935C80.3604 22.6072 78.4102 22.1737 77.1198 22.6072C75.6964 23.2495 74.6015 23.3261 73.7002 23.3261C70.5808 23.4385 69.8648 21.5345 69.9078 20.5421Z" fill="black"/>
<path d="M72.475 14.0089V9.14801C68.8622 9.14801 66.5798 10.8508 65.9052 11.7033C64.31 13.4505 63.9294 15.5764 63.9294 16.7907L63.9721 20.5477H69.9003C69.8858 20.1199 69.7706 18.7355 69.9003 16.6394C70.0278 14.579 71.2542 14.0562 72.475 14.0089Z" fill="black"/>
<path d="M74.9664 16.6419H69.7625V20.5623H80.6248C81.1189 17.8668 80.4981 15.0694 80.1259 14.0077C78.5347 9.46828 74.844 9.14612 72.4498 9.14612V14.0077C74.7615 14.0077 75.0031 15.7742 74.9664 16.6419Z" fill="black"/>
<path d="M57.2541 27.0765C55.8345 29.2784 50.9865 28.6313 50.3684 27.0765L44.7171 12.7082C44.387 10.4505 46.1456 9.51983 46.8596 9.31451C49.1175 8.66526 50.4528 10.0658 50.7854 10.9713L53.9194 20.6223L57.0009 10.8401C57.9765 8.82599 60.0474 9.0131 60.9609 9.35842C63.2373 10.397 63.0109 12.3175 62.6131 13.148L57.2541 27.0765Z" fill="black"/>
<path d="M86.2788 9.14949C88.0802 9.01057 89.0342 10.2028 89.2797 10.8306C91.3535 8.89144 93.0991 9.14895 93.3945 9.14949C94.3638 9.15126 96.457 9.56474 96.3178 12.0166C96.1786 14.4685 94.4651 14.7403 93.8072 14.7761C93.2893 14.8043 92.2392 14.7995 91.8343 14.836C89.7803 15.1777 89.5537 16.7772 89.5537 17.6485V27.1263C89.5537 28.9727 83.4696 28.9533 83.4688 27.1263L83.4688 12.0166C83.5165 10.1345 84.8482 9.25982 86.2788 9.14949Z" fill="black"/>
<path d="M99.3775 9.54044C101.76 8.43117 103.201 9.89288 103.624 10.7624L107.219 20.4571C108.31 17.1847 110.54 10.6333 110.797 10.3342C111.068 10.0196 112.112 8.52401 114.652 9.48202C116.923 10.339 116.449 12.796 115.928 13.9602L110.029 27.3007C108.591 31.0675 106.171 32.5333 105.141 32.7954C101.969 33.9438 99.7366 33.2224 98.9948 32.5144C97.4146 31.006 98.4188 29.024 99.0882 28.4941C99.6499 28.0494 100.462 27.9901 100.82 28.0611C101.169 28.1304 101.79 28.1679 102.119 28.1852C103.41 28.0611 103.953 27.4069 104.118 27.081L98.2297 13.9602C98.0997 13.755 97.8934 13.1959 97.8066 12.942C97.2875 11.035 98.6376 9.8797 99.3775 9.54044Z" fill="black"/>
<path d="M121.322 6.4139V9.73018H120.206C116.873 9.73018 116.745 14.699 120.206 14.699H121.322L121.308 22.1162C121.175 26.793 123.965 27.8288 124.642 28.0134C125.749 28.3153 130.432 29.4239 131.595 26.0545C132.054 24.7278 130.908 22.6019 128.816 23.2341C127.462 23.4802 127.221 22.5914 127.27 22.1162V14.699H129.158C132.587 14.699 132.492 9.73018 129.158 9.73018H127.27V6.4139C127.166 4.02525 125.181 3.54615 124.202 3.60518C121.823 3.83176 121.291 5.57207 121.322 6.4139Z" fill="black"/>
<path d="M139.541 5.33698V10.5227C142.22 8.13827 146.611 9.33027 147.825 10.3243C150.112 11.7746 150.688 15.321 150.646 16.9579V27.0104C150.646 29.0988 144.448 28.8674 144.448 27.0104V16.9579C144.448 13.4645 139.541 13.5098 139.52 16.9579V27.0104C139.52 29.081 133.418 28.9564 133.418 27.0104L133.418 5.33698C133.418 1.46893 139.541 1.66858 139.541 5.33698Z" fill="black"/>
<ellipse cx="156.746" cy="5.32665" rx="3.24708" ry="2.81634" fill="black"/>
<path d="M156.765 9.367C158.625 9.367 159.821 10.4749 159.821 12.2504V17.8795V27.3573C159.901 28.721 153.736 29.0733 153.736 27.3573L153.736 12.2504C153.736 10.2204 155.083 9.367 156.765 9.367Z" fill="black"/>
<path d="M163.288 10.7966C164.509 8.34802 167.976 8.8554 168.847 10.7966C169.376 10.2179 171.693 8.31508 175.992 9.56092C179.44 10.5603 180.135 14.9394 180.062 16.9639V27.3355C180.062 29.0391 173.87 28.7343 173.87 27.3355V16.9639C173.87 13.3677 169.099 13.4241 169.099 16.9639V27.3355C169.099 28.7913 163.02 28.9741 163.02 27.3355V12.4874C162.962 11.5435 163.174 10.9669 163.288 10.7966Z" fill="black"/>
<path d="M199.821 10.8258C198.415 7.90397 194.387 9.33059 194.244 10.8258C192.806 9.3888 190.841 9.14756 190.054 9.14756V14.6584C192.757 13.6036 193.974 15.461 194.032 16.8058V19.5095C193.494 22.3829 191.156 22.1098 190.054 21.6141V26.8897C192.169 27.0341 193.726 25.8574 194.239 25.251C194.248 27.1089 193.632 27.6786 192.424 28.1742C191.133 28.7039 189.253 28.4267 188.229 28.2757L188.19 28.27C187.465 28.1632 186.999 28.2042 186.891 28.2258C184.944 28.5494 184.98 30.4898 185.268 31.331C185.837 34.1193 193.413 33.5271 195.724 32.3783C199.411 31.0635 200.138 27.383 200.041 25.707V11.8904C200.032 11.3442 199.891 10.9531 199.821 10.8258Z" fill="black"/>
<path d="M190.083 14.6478V9.14932C188.872 8.93354 187.328 9.40494 186.708 9.66762C182.018 11.5957 182.436 18.2116 182.957 21.6256C183.949 26.3917 187.775 26.8919 190.063 26.8919V21.6256C189.19 21.245 188.912 20.0354 188.883 19.4781V16.9313C188.896 15.6597 189.688 14.8792 190.083 14.6478Z" fill="black"/>
<path d="M9.22164 12.2943H6.15088V6.22466C6.15088 3.9324 3.06107 3.97525 3.06107 6.22466V24.3557C3.06107 26.2369 6.15088 26.1689 6.15088 24.3557V18.7455C6.15088 17.1868 9.22164 17.1452 9.22164 18.7455V24.3557C9.22164 30.022 0.0493164 30.0673 0.0493164 24.3557V6.22466C0.0493164 3.46105 1.44609 1.48285 4.66059 1.48285C7.87509 1.48285 9.22164 3.71815 9.22164 6.22466V12.2943Z" fill="black"/>
<path d="M14.8021 17.8513L12.2423 16.0046L20.5505 7.55627C22.0283 6.05357 19.8106 3.92789 18.3604 5.4025L10.0867 13.8157C8.52562 15.2187 6.20283 14.659 6.11387 12.1614L8.38241 11.1981L16.1854 3.26351C18.6853 0.915147 21.0214 1.60318 22.7977 3.33685C24.574 5.07052 24.6671 7.81991 22.775 9.74394L14.8021 17.8513Z" fill="black"/>
<path d="M23.0884 27.532C21.1007 29.3863 17.7558 28.6757 16.5045 27.3656L13.8831 24.5252L11.2617 21.6848C9.4096 19.5525 11.0283 17.109 12.2803 15.9652L14.9112 17.7464C14.0798 18.4637 13.5982 19.4774 14.3117 20.2998L18.8087 25.0333C20.4063 26.7639 22.6457 24.5704 21.1294 22.9738L17.9126 19.5045C16.5369 18.0299 18.6466 15.969 20.059 17.483L23.3344 20.9937C25.0912 22.9483 25.076 25.6776 23.0884 27.532Z" fill="black"/>
</svg>
